<svg xmlns="http://www.w3.org/2000/svg" width="109.493" height="105.063" viewBox="0 0 109.493 105.063"><g transform="translate(0 -10.358)" style="isolation:isolate"><g transform="translate(0 10.358)"><g transform="translate(0 0)"><path d="M102.448,52.305c-1.281-1.036-3.412-2.764-3.678-3.584-.271-.851.43-3.588.851-5.217,1.009-3.932,2.267-8.823-.552-12.674-2.805-3.823-7.85-4.158-11.9-4.43-1.679-.118-4.493-.3-5.2-.819s-1.8-3.185-2.448-4.783c-1.6-3.959-3.416-8.448-7.855-9.877-4.416-1.443-8.452,1.113-12,3.362-1.566.986-3.923,2.48-4.909,2.48-.946,0-3.276-1.516-4.823-2.52-3.416-2.222-7.687-4.973-12.189-3.443-4.43,1.507-6.23,5.968-7.828,9.9-.642,1.584-1.71,4.226-2.443,4.764-.715.529-3.579.719-5.289.833-4.276.29-9.122.615-11.846,4.47C7.652,34.55,8.851,39.22,9.91,43.342c.416,1.638,1.122,4.38.869,5.2-.271.783-2.38,2.516-3.638,3.552C3.959,54.717,0,57.979,0,62.866c0,4.855,3.882,8.081,7,10.669,1.353,1.122,3.393,2.819,3.67,3.661s-.434,3.538-.86,5.154c-1.032,3.968-2.321,8.909.606,12.791,2.855,3.774,7.877,4.108,11.918,4.38,1.679.118,4.489.3,5.2.819s1.792,3.181,2.439,4.778c1.6,3.959,3.416,8.448,7.859,9.882a8.357,8.357,0,0,0,2.633.421c3.4,0,6.543-1.991,9.375-3.774,1.561-.986,3.914-2.48,4.9-2.48.964,0,3.28,1.475,4.81,2.452,3.393,2.158,7.629,4.864,12.122,3.326,4.425-1.507,6.226-5.964,7.823-9.9.642-1.579,1.71-4.226,2.443-4.764s3.565-.719,5.267-.833c4.244-.29,9.058-.611,11.823-4.407,2.783-3.814,1.588-8.534.534-12.692-.412-1.624-1.1-4.335-.851-5.149.271-.783,2.38-2.516,3.633-3.552,3.185-2.624,7.144-5.891,7.144-10.778C109.493,58.024,105.583,54.853,102.448,52.305ZM96.6,66.671c-2.647,2.176-5.384,4.434-6.461,7.669-1.1,3.294-.2,6.823.661,10.235A29.81,29.81,0,0,1,91.828,89.6c-.688.516-3.525.71-5.221.819-3.362.226-7.172.48-10.009,2.561-2.81,2.059-4.172,5.421-5.489,8.669a26.621,26.621,0,0,1-2.176,4.692c-.824,0-3.127-1.48-4.507-2.357-2.846-1.81-6.072-3.869-9.678-3.869s-6.864,2.063-9.742,3.882a36.547,36.547,0,0,1-4.226,2.47c-.7-.5-1.769-3.154-2.412-4.737-1.33-3.289-2.706-6.687-5.543-8.728-2.819-2.032-6.412-2.271-9.891-2.5-1.633-.109-4.678-.312-5.231-.688-.281-.8.43-3.538.86-5.167.837-3.226,1.792-6.882.715-10.221s-3.955-5.728-6.493-7.837c-1.24-1.032-3.552-2.955-3.746-3.651.2-.851,2.579-2.81,3.855-3.855,2.647-2.181,5.384-4.439,6.461-7.674,1.109-3.317.195-6.873-.683-10.312a36.811,36.811,0,0,1-1.086-4.968c.692-.5,3.507-.688,5.19-.8,3.534-.235,7.194-.484,10.031-2.561C35.618,30.7,36.98,27.348,38.3,24.1a29.118,29.118,0,0,1,2.149-4.688c.837.013,3.163,1.525,4.552,2.425,2.869,1.864,6.126,3.977,9.751,3.977,3.606,0,6.869-2.063,9.737-3.878a35.868,35.868,0,0,1,4.226-2.47c.7.5,1.769,3.154,2.412,4.737,1.33,3.285,2.706,6.683,5.543,8.723,2.819,2.036,6.416,2.276,9.9,2.507,1.719.118,4.6.312,5.14.638.276.8-.425,3.547-.851,5.185-.828,3.24-1.769,6.909-.688,10.257,1.09,3.371,4.009,5.737,6.583,7.823,1.176.959,3.344,2.71,3.678,3.552C100.109,63.771,97.833,65.649,96.6,66.671Z" transform="translate(0 -10.358)" fill="#dbcaa5"/></g></g><g transform="translate(32.124 44.764)"><path d="M193.071,172.3a4.515,4.515,0,0,0-6.371.566l-20.176,24.121-8.583-8.579a4.524,4.524,0,1,0-6.4,6.4l12.081,12.081a4.494,4.494,0,0,0,3.2,1.326,1.413,1.413,0,0,0,.195-.009,4.509,4.509,0,0,0,3.271-1.615l23.347-27.918A4.521,4.521,0,0,0,193.071,172.3Z" transform="translate(-150.216 -171.247)" fill="#dbcaa5"/></g></g></svg>