<svg xmlns="http://www.w3.org/2000/svg" width="13.723" height="13.723" viewBox="0 0 13.723 13.723"><g transform="translate(2.574) rotate(13)" style="isolation:isolate"><path d="M10.524,7.51a6.5,6.5,0,0,1-2.04-.325.933.933,0,0,0-.907.191L6.29,8.348a7.11,7.11,0,0,1-3.2-3.2L4.036,3.9a.925.925,0,0,0,.227-.937A6.506,6.506,0,0,1,3.938.918.919.919,0,0,0,3.019,0H.918A.919.919,0,0,0,0,.918,10.536,10.536,0,0,0,10.524,11.442a.919.919,0,0,0,.918-.918v-2.1A.919.919,0,0,0,10.524,7.51Z" fill="#fff"/></g></svg>