<svg xmlns="http://www.w3.org/2000/svg" width="127.918" height="30" viewBox="0 0 127.918 30"><g transform="translate(-241.58 -418.56)"><g transform="translate(241.58 418.56)"><path d="M252.984,437.1h15.49l1.225-6.6H244.93l-3.35,18.057h24.767l1.6-8.625H252.387ZM354.1,419.95H336.47l-1.4,7.811h26.992s.7-7.811-7.966-7.811m-22.739,28.61h8.935l1.771-9.4h8.715c10.995,0,11.083-8.659,11.083-8.659H334.587Zm-7.887-28.61H305.831l-1.385,7.811h26.979s.7-7.811-7.954-7.811m-22.749,28.61h8.945l1.775-9.4h8.712c10.995,0,11.083-8.659,11.083-8.659h-27.29Zm1.761-28.61h-19.83c-8.385,0-9.41,7.811-9.41,7.811h27.786ZM277.608,437.1h12.855l-.6,2.832H271l-1.6,8.625h21.738c6.368,0,6.885-4.529,6.885-4.529l1.6-8.614s1.015-4.914-4.318-4.914H272.747s-2.477,6.6,4.861,6.6m-5.961-17.151H246.894l-1.454,7.811H270.2Zm94.293,1.276h.583a.934.934,0,0,0,.586-.132.387.387,0,0,0,.152-.331.435.435,0,0,0-.064-.242,1.061,1.061,0,0,0-.7-.209h-.551v.913Zm-.5,1.71v-3.029h1.048a2.619,2.619,0,0,1,.769.075.725.725,0,0,1,.385.3.778.778,0,0,1,.133.44.789.789,0,0,1-.231.573.881.881,0,0,1-.628.287.994.994,0,0,1,.252.154,2.9,2.9,0,0,1,.453.605l.376.6h-.605l-.266-.488a2.248,2.248,0,0,0-.519-.693.574.574,0,0,0-.385-.109h-.286v1.291Zm1.246-3.914a2.329,2.329,0,0,0-1.157.31,2.086,2.086,0,0,0-.878.87,2.394,2.394,0,0,0-.319,1.178,2.3,2.3,0,0,0,.308,1.157,2.193,2.193,0,0,0,.881.872,2.282,2.282,0,0,0,1.167.307,2.373,2.373,0,0,0,1.169-.307,2.27,2.27,0,0,0,.87-.872,2.439,2.439,0,0,0,.308-1.157,2.413,2.413,0,0,0-.321-1.178,2.072,2.072,0,0,0-.88-.87,2.329,2.329,0,0,0-1.148-.31m0-.462a2.872,2.872,0,0,1,1.379.364,2.61,2.61,0,0,1,1.058,1.037,2.97,2.97,0,0,1,.372,1.421,2.753,2.753,0,0,1-.372,1.389,2.564,2.564,0,0,1-1.035,1.048,2.835,2.835,0,0,1-2.809,0,2.555,2.555,0,0,1-1.035-1.048,2.724,2.724,0,0,1-.376-1.389,2.84,2.84,0,0,1,.376-1.421,2.583,2.583,0,0,1,1.055-1.037,2.9,2.9,0,0,1,1.389-.364" transform="translate(-241.58 -418.56)" fill="#021389" fill-rule="evenodd"/></g></g></svg>