<svg xmlns="http://www.w3.org/2000/svg" width="13.386" height="13.386" viewBox="0 0 13.386 13.386"><g style="isolation:isolate"><path d="M12.994,105H11.268v3.53a.392.392,0,0,1-.392.392H5.856a.392.392,0,0,1-.392-.392V105H4.575v8.549a.392.392,0,0,1-.392.392H2.092a.392.392,0,0,1-.392-.392V105H.392a.392.392,0,0,0-.392.392v9.857a.392.392,0,0,0,.392.392h12.6a.392.392,0,0,0,.392-.392v-9.857A.392.392,0,0,0,12.994,105Zm-6.719,8.942H5.856a.392.392,0,0,1,0-.784h.418a.392.392,0,0,1,0,.784Zm0-1.673H5.856a.392.392,0,0,1,0-.784h.418a.392.392,0,0,1,0,.784Zm0-1.673H5.856a.392.392,0,0,1,0-.784h.418a.392.392,0,0,1,0,.784Zm2.3,3.347H8.157a.392.392,0,0,1,0-.784h.418a.392.392,0,0,1,0,.784Zm0-1.673H8.157a.392.392,0,0,1,0-.784h.418a.392.392,0,0,1,0,.784Zm0-1.673H8.157a.392.392,0,0,1,0-.784h.418a.392.392,0,0,1,0,.784Zm2.3,3.347h-.418a.392.392,0,0,1,0-.784h.418a.392.392,0,0,1,0,.784Zm0-1.673h-.418a.392.392,0,0,1,0-.784h.418a.392.392,0,0,1,0,.784Zm0-1.673h-.418a.392.392,0,0,1,0-.784h.418a.392.392,0,0,1,0,.784Z" transform="translate(0 -102.255)" fill="#fff"/><path d="M95.915,73h-.523a.392.392,0,0,0-.392.392V81.6a.392.392,0,0,0,.392.392h.523a.392.392,0,0,0,.392-.392v-8.21A.392.392,0,0,0,95.915,73Z" transform="translate(-92.516 -71.091)" fill="#fff"/><path d="M243.235,1.568V5.883H239V1.568A1.568,1.568,0,0,1,240.568,0h3.052a.218.218,0,0,1,.134.389,1.435,1.435,0,0,0-.519,1.179Z" transform="translate(-232.751 0)" fill="#fff"/></g></svg>