<svg xmlns="http://www.w3.org/2000/svg" width="13.117" height="10.306" viewBox="0 0 13.117 10.306"><g style="isolation:isolate"><g transform="translate(0 0)"><path d="M1.259,58q.249.176,1.5,1.043t1.918,1.336l.311.223q.238.172.4.278t.381.238a2.209,2.209,0,0,0,.421.2,1.16,1.16,0,0,0,.366.066h.015a1.161,1.161,0,0,0,.366-.066,2.212,2.212,0,0,0,.421-.2q.223-.132.381-.238t.4-.278l.311-.223L11.865,58a3.477,3.477,0,0,0,.893-.9,1.933,1.933,0,0,0,.359-1.105,1.181,1.181,0,0,0-1.171-1.171H1.171A1.045,1.045,0,0,0,.3,55.2a1.477,1.477,0,0,0-.3.952,1.71,1.71,0,0,0,.4,1A3.633,3.633,0,0,0,1.259,58Z" transform="translate(0 -54.82)" fill="#fff"/><path d="M12.385,185.074Q9.984,186.7,8.74,187.6q-.417.307-.677.479a4.177,4.177,0,0,1-.692.351,2.106,2.106,0,0,1-.805.179H6.551a2.107,2.107,0,0,1-.805-.179,4.179,4.179,0,0,1-.692-.351q-.26-.172-.677-.479-.988-.725-3.638-2.525A3.877,3.877,0,0,1,0,184.437v5.811a1.127,1.127,0,0,0,.344.827,1.127,1.127,0,0,0,.827.344H11.946a1.175,1.175,0,0,0,1.171-1.171v-5.811A4.035,4.035,0,0,1,12.385,185.074Z" transform="translate(0 -181.114)" fill="#fff"/></g></g></svg>