<svg xmlns="http://www.w3.org/2000/svg" width="120.283" height="77.247" viewBox="0 0 120.283 77.247"><g transform="translate(120.283 85.511) rotate(180)"><path d="M52.982,8.264A27.534,27.534,0,0,0,25.5,36.073a27.948,27.948,0,0,0,27.97,27.809c.154,0,.385-.021.539-.023a35.227,35.227,0,0,1-22.046,7.749,6.935,6.935,0,0,0-6.931,6.952c0,3.838,2.471,6.952,6.312,6.952,27.259,0,48.8-22.179,48.8-49.439v-.018C80.14,20.705,68.334,8.264,52.982,8.264Z" transform="translate(40.143)" fill="#d9d9d9"/><path d="M27.991,8.264A27.552,27.552,0,0,0,.487,36.073,27.94,27.94,0,0,0,28.449,63.881c.154,0,.38-.021.534-.023A35.234,35.234,0,0,1,6.934,71.607,6.937,6.937,0,0,0,0,78.559c0,3.838,2.51,6.952,6.351,6.952,27.259,0,48.837-22.179,48.837-49.439v-.018C55.188,20.705,43.343,8.264,27.991,8.264Z" fill="#d9d9d9"/></g></svg>