<svg xmlns="http://www.w3.org/2000/svg" width="16.627" height="19.211" viewBox="0 0 16.627 19.211"><path d="M16.623,18.579l-1.46-13.9a.572.572,0,0,0-.569-.512H11.85V3.537a3.537,3.537,0,0,0-7.075,0v.626H2.031a.572.572,0,0,0-.569.512L0,18.579a.572.572,0,0,0,.569.631H16.054a.572.572,0,0,0,.569-.631ZM5.919,3.537a2.394,2.394,0,0,1,4.788,0v.626H5.919ZM1.206,18.067,2.546,5.306H4.775v1.26a.572.572,0,1,0,1.144,0V5.306h4.788v1.26a.572.572,0,1,0,1.144,0V5.306h2.229l1.34,12.761Zm0,0" transform="translate(0.001)" fill="#4d4d4d"/></svg>